<?xml version="1.0" encoding="utf-8"?>
<!-- Generator: Adobe Illustrator 27.0.1, SVG Export Plug-In . SVG Version: 6.00 Build 0)  -->
<svg version="1.1" id="Layer_1" xmlns="http://www.w3.org/2000/svg" x="0px"
	 y="0px"
	 width="584.9199px" height="125.1456px" viewBox="0 0 584.9199 125.1456"
	 style="enable-background:new 0 0 584.9199 125.1456;"
	 xml:space="preserve">
<style type="text/css">
	.st0{fill:#FFFFFF;}
</style>
    <path class="st0" d="M38.3062,18.8429L23.3345,33.8146c-0.8856,0.8856-2.3214,0.8856-3.207,0L5.1557,18.8429
	c-0.8856-0.8856-0.8856-2.3214,0-3.207L20.1274,0.6642c0.8856-0.8856,2.3214-0.8856,3.207,0l14.9717,14.9717
	C39.1918,16.5215,39.1918,17.9573,38.3062,18.8429z"/>
    <path class="st0" d="M536.8962,80.7694l26.5992,39.4733c0.958,1.3633-0.0853,3.1781-1.827,3.1781h-22.3495
	c-1.4946,0-2.8933-0.737-3.7392-1.9702l-15.376-23.5276l-15.376,23.5276c-0.8459,1.2333-2.2445,1.9702-3.7392,1.9702H478.739
	c-1.7417,0-2.785-1.8148-1.827-3.1781l26.516-39.4733L476.912,41.296c-0.958-1.3633,0.0853-3.1781,1.827-3.1781h23.3034
	c0.874,0,1.6844,0.4021,2.1372,1.0605l16.024,24.4024l15.0354-24.3929c0.4513-0.6637,1.2653-1.0699,2.1437-1.0699h23.5317
	c1.739,0,2.7827,1.8097,1.8303,3.1734L536.8962,80.7694z"/>
    <path class="st0" d="M173.9711,3.6571h-18.5364c-1.8042,0-3.5347,0.7167-4.8105,1.9926L133.2077,23.066
	c-1.2759,1.2758-1.9924,3.0062-1.9924,4.8105v13.7072h-10.396c-1.231,0-2.2288,0.9978-2.2288,2.2286v15.3853
	c0,1.2308,0.9978,2.2286,2.2288,2.2286h10.396v59.7269c0,1.2524,1.0154,2.2678,2.2676,2.2678h19.5591
	c1.2524,0,2.2678-1.0153,2.2678-2.2678V61.4262h15.5337c1.231,0,2.2288-0.9978,2.2288-2.2286V43.8124
	c0-1.2308-0.9978-2.2286-2.2288-2.2286h-15.5337v-9.7219c0-3.7573,3.0459-6.8031,6.8032-6.8031h11.8582
	c1.2524,0,2.2678-1.0153,2.2678-2.2678V5.9248C176.2389,4.6724,175.2235,3.6571,173.9711,3.6571z"/>
    <g>
	<path class="st0" d="M584.9199,115.3466c0,5.2246-4.1797,9.4033-9.4219,9.4033c-5.1299,0-9.3477-4.2168-9.3477-9.4033
		c0-5.2051,4.1797-9.3652,9.3848-9.3652S584.9199,110.1416,584.9199,115.3466z M583.4766,115.3847
		c0-4.502-3.5527-8.0742-7.9414-8.0742s-7.9404,3.5342-7.9404,8.0557c0,4.4639,3.5908,8.0547,7.9033,8.0547
		C579.9238,123.4209,583.4766,119.8681,583.4766,115.3847z M577.5488,116.8662l2.3555,3.667h-1.5566l-2.6221-4.1602h-0.3428h-2.0508
		v4.1602h-1.3105v-10.5244h4.084c2.0137,0,3.3242,1.083,3.3242,3.0967c0,1.6338-0.9883,2.6406-2.3936,3.0391
		C577.2266,116.3535,577.416,116.6191,577.5488,116.8662z M575.668,115.1376c1.4824,0,2.3945-0.7031,2.3945-1.9375
		c0-1.1973-0.627-1.957-1.9189-1.957h-2.8115v3.8945H575.668z"/>
</g>
    <path class="st0" d="M386.2024,123.4209h-19.5591c-1.2524,0-2.2677-1.0153-2.2677-2.2677V5.9248
	c0-1.2524,1.0153-2.2677,2.2677-2.2677h19.5591c1.2524,0,2.2677,1.0153,2.2677,2.2677v115.2283
	C388.4701,122.4056,387.4548,123.4209,386.2024,123.4209z"/>
    <path class="st0" d="M317.7638,36.3203c-11.1233,0-20.3662,4.8157-26.1841,12.7246V5.9248c0-1.2524-1.0151-2.2677-2.2676-2.2677
	h-19.5591c-1.2524,0-2.2676,1.0153-2.2676,2.2677v115.2283c0,1.2524,1.0151,2.2678,2.2676,2.2678h19.5591
	c1.2524,0,2.2676-1.0153,2.2676-2.2678v-8.4913c5.8179,7.9089,15.0608,12.4838,26.3562,12.4838
	c23.7893,0,39.9807-19.1888,39.9807-44.2922S341.7253,36.3203,317.7638,36.3203z M312.9723,102.5179
	c-12.3218,0-21.3926-9.973-21.3926-21.6646c0-11.6915,9.0708-21.4937,21.3926-21.4937c12.1519,0,21.0505,9.8022,21.0505,21.4937
	C334.0229,92.5448,325.1242,102.5179,312.9723,102.5179z"/>
    <path class="st0" d="M217.111,36.3203c-24.825,0-44.0388,19.34-44.0388,44.3276s19.2139,44.4976,44.0388,44.4976
	s44.0388-19.5099,44.0388-44.4976S241.9359,36.3203,217.111,36.3203z M217.1981,102.28c-12.1245,0-21.2605-9.878-21.2605-21.6317
	c0-11.7536,9.136-21.4623,21.2605-21.4623c12.2991,0,21.0859,9.7087,21.0859,21.4623
	C238.2841,92.402,229.4972,102.28,217.1981,102.28z"/>
    <path class="st0" d="M438.8423,36.3203c-24.825,0-44.0388,19.34-44.0388,44.3276s19.2139,44.4976,44.0388,44.4976
	s44.0388-19.5099,44.0388-44.4976S463.6672,36.3203,438.8423,36.3203z M438.9294,102.28c-12.1245,0-21.2605-9.878-21.2605-21.6317
	c0-11.7536,9.136-21.4623,21.2605-21.4623c12.2991,0,21.0859,9.7087,21.0859,21.4623
	C460.0154,92.402,451.2285,102.28,438.9294,102.28z"/>
    <path class="st0" d="M21.8268,123.4209H2.2677c-1.2524,0-2.2677-1.0153-2.2677-2.2677v-60.738c0-1.2206,0.492-2.3896,1.3647-3.243
	L20.2414,38.716c1.4358-1.4038,3.8531-0.3866,3.8531,1.6215v80.8157C24.0945,122.4056,23.0792,123.4209,21.8268,123.4209z"/>
    <path class="st0" d="M115.3796,66.9307c0-16.5521-13.6736-30.4282-30.8967-30.6291c-11.2092-0.1309-18.7788,5.3641-23.6248,12.7809
	v-8.6972c0-1.2523-1.0151-2.2674-2.2676-2.2674H39.0309c-1.2522,0-2.2676,1.0151-2.2676,2.2674v80.7681
	c0,1.2523,1.0154,2.2675,2.2676,2.2675h19.5596c1.2524,0,2.2676-1.0152,2.2676-2.2675V74.1789
	c0.5405-9.0374,6.2676-14.6639,15.2119-14.6639c9.3066,0,15.2153,6.3144,15.2153,15.7012v45.937
	c0,1.2524,1.0154,2.2678,2.2678,2.2678h19.5591c1.2524,0,2.2676-1.0153,2.2676-2.2678L115.3796,66.9307z"/>
</svg>
